<svg id="Capa_1" enable-background="new 0 0 512 512" height="512" viewBox="0 0 512 512" width="512" xmlns="http://www.w3.org/2000/svg"><g><g><g><g><g><g><g><g><g><circle cx="256" cy="256" fill="#64e1dc" r="256"/></g></g></g></g></g></g></g></g><path d="m512 256c0-17.499-1.756-34.587-5.101-51.099l-119.279-119.28-13.589 45.881-54.502-54.502-195.149 349.379 80.52 80.52c16.513 3.345 33.601 5.101 51.1 5.101 141.385 0 256-114.615 256-256z" fill="#00c8c8"/><g><path d="m124.38 85.621h263.239v340.758h-263.239z" fill="#ffce00"/></g><g><path d="m256 85.621h131.62v340.758h-131.62z" fill="#fdba12"/></g><g><path d="m158.263 106.948h195.475v271.71h-195.475z" fill="#fff"/></g><g><path d="m256 106.948h97.737v271.71h-97.737z" fill="#e9edf5"/></g><g><path d="m192.471 77h127.059v49.862h-127.059z" fill="#636978"/></g><g><path d="m256 77h63.529v49.862h-63.529z" fill="#414952"/></g><g><path d="m199.911 185.356c0-16.055 13.015-29.07 29.07-29.07 12.259 0 22.746 7.578 27.019 18.314 4.273-10.736 14.76-18.314 27.019-18.314 16.055 0 29.07 13.015 29.07 29.07 0 39.765-56.089 70.644-56.089 70.644s-56.089-32.809-56.089-70.644z" fill="#fe6a16"/></g><g><path d="m283.019 156.286c-12.259 0-22.746 7.578-27.019 18.314-.004-.011.004.011 0 0v81.392c.003.002 0 .008 0 .008s56.089-30.879 56.089-70.644c0-16.055-13.015-29.07-29.07-29.07z" fill="#f24500"/></g><g><path d="m181.72 277.989h148.561v26.063h-148.561z" fill="#dce1eb"/></g><g><path d="m256 277.989h74.28v26.063h-74.28z" fill="#bec3d2"/></g><g><path d="m181.72 326.04h148.561v26.063h-148.561z" fill="#dce1eb"/></g><g><path d="m256 326.041h74.28v26.063h-74.28z" fill="#bec3d2"/></g></g></svg>